<?xml version="1.0" encoding="utf-8"?>
<!-- Generator: Adobe Illustrator 22.0.0, SVG Export Plug-In . SVG Version: 6.00 Build 0)  -->
<svg version="1.1" id="Layer_1" xmlns="http://www.w3.org/2000/svg" xmlns:xlink="http://www.w3.org/1999/xlink" x="0px" y="0px"
	 viewBox="0 0 729.3 777.2" style="enable-background:new 0 0 729.3 777.2;" xml:space="preserve">
<style type="text/css">
	.st0{fill:#FFFFFF;stroke:#FFFFFF;stroke-width:7;stroke-miterlimit:10;}
</style>
<g>
	<g>
		<path class="st0" d="M38.7,773.3c-6.6-0.2-13.4-0.4-20.2-0.8L7.1,772l137.4-170.1l3.2,0.4c37.3,4.8,70.8,7.7,99.4,8.8l5.9,0.2
			c23.2,0.7,42.8,0,60.1-2c22.1-2.4,43.2-8.9,62.7-19.3c23.2-12.2,43.9-29.5,61.4-51.5c15.9-19.8,26.8-40.3,33.5-62.5
			c6.1-20.8,10.2-57.7,12.4-109.6l15-360.3l21,12.9c9.8,6,19.1,11.8,28.1,17.2L550,38l-0.1,3.3c-0.7,34.2-1.4,69.6-2.1,106.4
			l-0.8,40.9c-0.7,35.5-1.4,72.2-2.2,110.3l-1.2,61.9c-1.3,61.2-5.9,104.9-14.3,133.6c-9.3,31.9-24.9,62.4-47.7,93.1
			c-13.1,17.5-27.9,34.2-44.1,49.4c-18.5,17.3-39.9,34.1-63.4,49.8c-19.9,13.3-40.9,25.4-62.2,35.8c-23.6,11.4-48.4,21.1-73.7,28.8
			c-28.1,8.6-59.4,14.7-93.2,18.2C113,773.1,77.2,774.4,38.7,773.3z M30.4,761.4c41.5,1.5,79.5,0.4,113.5-3.3
			c33-3.4,63.7-9.4,91-17.8c24.7-7.5,48.9-17,72-28.1c20.9-10.2,41.3-21.9,60.8-35c23-15.4,43.8-31.8,61.9-48.6
			c15.7-14.8,30.1-30.9,42.8-47.9c22-29.6,37-58.9,45.9-89.5c8-27.3,12.6-71.3,13.8-130.6l1.2-61.9c0.7-38.1,1.4-74.9,2.2-110.3
			l0.8-40.9c0.7-35.6,1.4-69.9,2.1-103.1c-8.1-4.9-16.5-10.1-25.3-15.5l-4.2-2.6l-14.2,340.6c-2.2,52.9-6.6,90.7-12.9,112.4
			c-7.1,23.7-18.7,45.4-35.5,66.4c-18.6,23.2-40.5,41.5-65,54.4c-20.8,11-43.3,18-66.8,20.6c-17.8,2-38,2.7-61.7,2l-6-0.2
			c-28.2-1-60.9-3.8-97.3-8.4L30.4,761.4z"/>
	</g>
	<g>
		<path class="st0" d="M38.7,773.3c-6.6-0.2-13.4-0.4-20.2-0.8L7.1,772l137.4-170.1l3.2,0.4c37.3,4.8,70.8,7.7,99.4,8.8l5.9,0.2
			c23.2,0.7,42.8,0,60.1-2c22.1-2.4,43.2-8.9,62.7-19.3c23.2-12.2,43.9-29.5,61.4-51.5c15.9-19.8,26.8-40.3,33.5-62.5
			c6.1-20.8,10.2-57.7,12.4-109.6l15-360.3l21,12.9c9.8,6,19.1,11.8,28.1,17.2L550,38l-0.1,3.3c-0.7,34.2-1.4,69.6-2.1,106.4
			l-0.8,40.9c-0.7,35.5-1.4,72.2-2.2,110.3l-1.2,61.9c-1.3,61.2-5.9,104.9-14.3,133.6c-9.3,31.9-24.9,62.4-47.7,93.1
			c-13.1,17.5-27.9,34.2-44.1,49.4c-18.5,17.3-39.9,34.1-63.4,49.8c-19.9,13.3-40.9,25.4-62.2,35.8c-23.6,11.4-48.4,21.1-73.7,28.8
			c-28.1,8.6-59.4,14.7-93.2,18.2C113,773.1,77.2,774.4,38.7,773.3z M30.4,761.4c41.5,1.5,79.5,0.4,113.5-3.3
			c33-3.4,63.7-9.4,91-17.8c24.7-7.5,48.9-17,72-28.1c20.9-10.2,41.3-21.9,60.8-35c23-15.4,43.8-31.8,61.9-48.6
			c15.7-14.8,30.1-30.9,42.8-47.9c22-29.6,37-58.9,45.9-89.5c8-27.3,12.6-71.3,13.8-130.6l1.2-61.9c0.7-38.1,1.4-74.9,2.2-110.3
			l0.8-40.9c0.7-35.6,1.4-69.9,2.1-103.1c-8.1-4.9-16.5-10.1-25.3-15.5l-4.2-2.6l-14.2,340.6c-2.2,52.9-6.6,90.7-12.9,112.4
			c-7.1,23.7-18.7,45.4-35.5,66.4c-18.6,23.2-40.5,41.5-65,54.4c-20.8,11-43.3,18-66.8,20.6c-17.8,2-38,2.7-61.7,2l-6-0.2
			c-28.2-1-60.9-3.8-97.3-8.4L30.4,761.4z"/>
	</g>
	<g>
		<path class="st0" d="M613.8,497.3l-0.4-129c-0.1-18.8-0.1-37.2-0.2-55.4l-0.2-51.9c-0.1-34.5-0.2-68-0.3-100.4l-0.2-96.4l8.9,5.6
			c7.8,4.9,15.2,9.7,22.3,14.3l2.6,1.7l0.6,3.4c0.7,49.1,1.4,100.9,2.2,155.5l1,68.6c0.5,33.9,1,68.9,1.6,105
			c11.8-5.6,22.7-10.7,32.8-15.3l8.6-4c8-3.7,15.5-7.2,22.6-10.5l7.8-3.7l0.5,8.6c0.5,9,0.9,18,1.3,27.2l0.4,8.7l-3,1.8
			c-8,4.8-16.5,10-25.8,15.6l-15.4,9.3c-17.2,10.4-36.7,22.3-59.1,35.9L613.8,497.3z M624.2,85.3l0.2,75.3
			c0.1,32.4,0.2,65.9,0.2,100.4l0.2,51.9c0.1,18.2,0.1,36.6,0.2,55.4l0.3,108.5c18.7-11.4,35.4-21.6,50.3-30.6l15.4-9.3
			c8.1-4.9,15.7-9.5,22.9-13.9l-0.1-1.8c-0.3-6.2-0.6-12.4-0.9-18.5c-4.7,2.2-9.7,4.5-14.9,6.9l-8.6,4
			c-12.3,5.7-25.9,12.1-40.9,19.1l-8.1,3.8l-0.1-8.9c-0.6-39.3-1.2-77.3-1.7-114l-1-68.6c-0.8-53.4-1.5-104.2-2.2-152.4
			C631.7,90.2,628,87.8,624.2,85.3z"/>
	</g>
</g>
</svg>
